<?xml version="1.0" standalone="no"?><!DOCTYPE svg PUBLIC "-//W3C//DTD SVG 1.1//EN" "http://www.w3.org/Graphics/SVG/1.1/DTD/svg11.dtd"><svg t="1611653598732" class="icon" viewBox="0 0 1024 1024" version="1.1" xmlns="http://www.w3.org/2000/svg" p-id="1864" xmlns:xlink="http://www.w3.org/1999/xlink" width="200" height="200"><defs><style type="text/css"></style></defs><path d="M153.6 371.7632h494.933333a85.333333 85.333333 0 0 1 85.333334 85.333333v273.066667a85.333333 85.333333 0 0 1-85.333334 85.333333H153.6a85.333333 85.333333 0 0 1-85.333333-85.333333v-273.066667a85.333333 85.333333 0 0 1 85.333333-85.333333z" fill="#000000" p-id="1865"></path><path d="M153.6 405.896533a51.2 51.2 0 0 0-51.2 51.2v273.066667a51.2 51.2 0 0 0 51.2 51.2h494.933333a51.2 51.2 0 0 0 51.2-51.2v-273.066667a51.2 51.2 0 0 0-51.2-51.2H153.6z" fill="#C93E0C" p-id="1866"></path><path d="M738.372267 529.1008l89.361066-83.7632A65.877333 65.877333 0 0 1 938.666667 493.397333v207.872a65.877333 65.877333 0 0 1-110.933334 48.059734l-89.361066-83.7632A68.266667 68.266667 0 0 1 716.8 615.765333v-36.864a68.266667 68.266667 0 0 1 21.572267-49.800533z" fill="#000000" p-id="1867"></path><path d="M761.719467 554.001067a34.133333 34.133333 0 0 0-10.786134 24.917333v36.846933a34.133333 34.133333 0 0 0 10.786134 24.900267l89.361066 83.7632A31.744 31.744 0 0 0 904.533333 701.269333V493.397333a31.744 31.744 0 0 0-53.4528-23.159466l-89.361066 83.7632z" fill="#31A899" p-id="1868"></path><path d="M211.797333 512h136.533334a85.333333 85.333333 0 0 1 85.333333 85.333333v68.266667a85.333333 85.333333 0 0 1-85.333333 85.333333h-136.533334a85.333333 85.333333 0 0 1-85.333333-85.333333v-68.266667a85.333333 85.333333 0 0 1 85.333333-85.333333z" fill="#000000" p-id="1869"></path><path d="M211.797333 546.133333a51.2 51.2 0 0 0-51.2 51.2v68.266667a51.2 51.2 0 0 0 51.2 51.2h136.533334a51.2 51.2 0 0 0 51.2-51.2v-68.266667a51.2 51.2 0 0 0-51.2-51.2h-136.533334z" fill="#FECE94" p-id="1870"></path><path d="M488.3456 750.933333h174.148267a17.066667 17.066667 0 1 0 0-34.133333H488.3456a17.066667 17.066667 0 1 0 0 34.133333zM491.8272 682.666667h170.666667a17.066667 17.066667 0 1 0 0-34.133334h-170.666667a17.066667 17.066667 0 0 0 0 34.133334z" fill="#000000" p-id="1871"></path><path d="M508.893867 477.866667m-34.133334 0a34.133333 34.133333 0 1 0 68.266667 0 34.133333 34.133333 0 1 0-68.266667 0Z" fill="#000000" p-id="1872"></path><path d="M588.8 486.4m-25.6 0a25.6 25.6 0 1 0 51.2 0 25.6 25.6 0 1 0-51.2 0Z" fill="#000000" p-id="1873"></path><path d="M657.066667 486.4m-25.6 0a25.6 25.6 0 1 0 51.2 0 25.6 25.6 0 1 0-51.2 0Z" fill="#000000" p-id="1874"></path><path d="M218.760533 392.533333a119.466667 119.466667 0 1 0 0-238.933333 119.466667 119.466667 0 0 0 0 238.933333z" fill="#000000" p-id="1875"></path><path d="M218.760533 358.4a85.333333 85.333333 0 1 1 0-170.666667 85.333333 85.333333 0 0 1 0 170.666667z" fill="#2FA99B" p-id="1876"></path><path d="M221.866667 273.066667m-51.2 0a51.2 51.2 0 1 0 102.4 0 51.2 51.2 0 1 0-102.4 0Z" fill="#000000" p-id="1877"></path><path d="M423.560533 392.533333a102.4 102.4 0 1 0 0-204.8 102.4 102.4 0 0 0 0 204.8z" fill="#000000" p-id="1878"></path><path d="M423.560533 358.4a68.266667 68.266667 0 1 1 0-136.533333 68.266667 68.266667 0 0 1 0 136.533333z" fill="#31A899" p-id="1879"></path><path d="M426.666667 290.133333m-34.133334 0a34.133333 34.133333 0 1 0 68.266667 0 34.133333 34.133333 0 1 0-68.266667 0Z" fill="#000000" p-id="1880"></path></svg>